<?xml version="1.0" encoding="UTF-8"?>
<svg version="1.1" xmlns="http://www.w3.org/2000/svg" width="878" height="46">
<path d="M0 0 C2.57047984 -0.00072813 5.14095482 -0.00289429 7.71143341 -0.00549722 C16.81436231 -0.01467307 25.9172769 -0.0188434 35.02021027 -0.01804566 C42.37439941 -0.01751724 49.72853479 -0.02448554 57.08271027 -0.03855348 C104.14200213 -0.12644123 151.11043874 0.36368676 198.13739777 2.16725707 C200.17564398 2.24379026 202.21389253 2.32026096 204.25214386 2.39665771 C215.07133764 2.80680646 225.8868722 3.27679668 236.70117569 3.79980254 C239.23759147 3.92208758 241.7741084 4.04209609 244.31064606 4.16182494 C292.70490727 6.45720972 341.06371697 9.65541568 389.37567902 13.28444457 C390.40565506 13.36042876 391.4356311 13.43641295 392.49681854 13.5146997 C397.09391659 13.8687049 401.60151374 14.30033368 406.13739777 15.16725707 C406.13739777 16.81725707 406.13739777 18.46725707 406.13739777 20.16725707 C390.9832197 19.20725117 375.83086071 18.22754277 360.6834774 17.16530204 C298.75852344 12.82317185 236.79905519 9.25675255 174.75049591 7.25258422 C172.34143193 7.17391953 169.93251804 7.0918843 167.52362823 7.00807738 C120.45167811 5.37883872 73.23492428 4.71800501 26.13739777 5.16725707 C24.98850067 5.1782141 23.83960358 5.18917113 22.65589142 5.2004602 C-63.30595142 6.05436253 -149.22973971 9.3809359 -424.04603291 40.43108249 C-427.84897108 40.99244023 -431.65233907 41.55085575 -435.45572472 42.10917258 C-438.07165901 42.4947331 -440.68680567 42.88533389 -443.30194855 43.27622008 C-452.15117473 44.58438715 -460.92507571 45.65527399 -469.86260223 46.16725707 C-470.42510223 44.22975707 -470.42510223 44.22975707 -470.86260223 42.16725707 C-468.94081159 40.24546643 -465.55090549 40.40535857 -462.92461395 40.01906371 C-462.19134573 39.90797743 -461.45807751 39.79689115 -460.70258904 39.68243861 C-458.23312384 39.30973003 -455.76276114 38.943389 -453.29228973 38.57741332 C-451.53752388 38.31484737 -449.78278404 38.05210759 -448.02806854 37.78920531 C-442.26572284 36.92827213 -436.50175358 36.07850289 -430.73760223 35.22975707 C-429.75287682 35.08441905 -428.7681514 34.93908103 -427.75358582 34.78933883 C-366.97061631 25.81973382 -306.05044393 17.8312581 -244.86260223 12.16725707 C-243.08985931 12.00287139 -243.08985931 12.00287139 -241.28130341 11.83516479 C-191.56837212 7.25246826 -141.74217349 4.0595535 -91.86260223 1.97975707 C-90.5346463 1.92436263 -90.5346463 1.92436263 -89.17986298 1.86784911 C-82.74171425 1.60467492 -76.30248844 1.38308611 -69.86260223 1.16725707 C-68.67032894 1.12672745 -67.47805565 1.08619782 -66.24965286 1.04444003 C-44.16271894 0.30855209 -22.09855326 0.00355105 0 0 Z " fill="#DCE546" transform="translate(471.8626022338867,-0.16725707054138184)"/>
</svg>
